{"asset":{"generator":"Khronos glTF Blender I/O v1.2.75","version":"2.0"},"scene":0,"scenes":[{"name":"Scene","nodes":[0,1]}],"nodes":[{"name":"Light","rotation":[0.16907575726509094,0.7558803558349609,-0.27217137813568115,0.570947527885437],"translation":[2.27876615524292,3.2907352447509766,-2.4925451278686523]},{"mesh":0,"name":"Sphere","rotation":[0,0.4397602677345276,0,0.8981152176856995],"scale":[0.05134820193052292,0.05134820193052292,0.05134820193052292]}],"materials":[{"doubleSided":true,"emissiveFactor":[0,0,0],"name":"oxygen","pbrMetallicRoughness":{"baseColorFactor":[0.8000000715255737,0.043513379991054535,0.022284550592303276,1],"metallicFactor":0,"roughnessFactor":0.5}},{"doubleSided":true,"emissiveFactor":[0,0,0],"name":"Hydrogen","pbrMetallicRoughness":{"baseColorFactor":[0.800000011920929,0.800000011920929,0.800000011920929,1],"metallicFactor":0,"roughnessFactor":0.5}},{"doubleSided":true,"emissiveFactor":[0,0,0],"name":"Material","pbrMetallicRoughness":{"baseColorFactor":[0.800000011920929,0.800000011920929,0.800000011920929,1],"metallicFactor":0,"roughnessFactor":0.4000000059604645}}],"meshes":[{"name":"Sphere","primitives":[{"attributes":{"POSITION":0,"NORMAL":1,"TEXCOORD_0":2},"indices":3,"material":0},{"attributes":{"POSITION":4,"NORMAL":5,"TEXCOORD_0":6},"indices":7,"material":1},{"attributes":{"POSITION":8,"NORMAL":9,"TEXCOORD_0":10},"indices":11,"material":2}]}],"accessors":[{"bufferView":0,"componentType":5126,"count":798,"max":[1.000000238418579,1,1.5096397399902344],"min":[-1.4814807176589966,-1,-1],"type":"VEC3"},{"bufferView":1,"componentType":5126,"count":798,"type":"VEC3"},{"bufferView":2,"componentType":5126,"count":798,"type":"VEC2"},{"bufferView":3,"componentType":5123,"count":3444,"type":"SCALAR"},{"bufferView":4,"componentType":5126,"count":1180,"max":[0.6046313643455505,0.560606062412262,3.651144027709961],"min":[-3.3431396484375,-0.560606062412262,-1.3726465702056885],"type":"VEC3"},{"bufferView":5,"componentType":5126,"count":1180,"type":"VEC3"},{"bufferView":6,"componentType":5126,"count":1180,"type":"VEC2"},{"bufferView":7,"componentType":5123,"count":5760,"type":"SCALAR"},{"bufferView":8,"componentType":5126,"count":208,"max":[0.16016604006290436,0.14410604536533356,3.0026700496673584],"min":[-2.926954507827759,-0.14410610496997833,-0.9148404598236084],"type":"VEC3"},{"bufferView":9,"componentType":5126,"count":208,"type":"VEC3"},{"bufferView":10,"componentType":5126,"count":208,"type":"VEC2"},{"bufferView":11,"componentType":5123,"count":564,"type":"SCALAR"}],"bufferViews":[{"buffer":0,"byteLength":9576,"byteOffset":0},{"buffer":0,"byteLength":9576,"byteOffset":9576},{"buffer":0,"byteLength":6384,"byteOffset":19152},{"buffer":0,"byteLength":6888,"byteOffset":25536},{"buffer":0,"byteLength":14160,"byteOffset":32424},{"buffer":0,"byteLength":14160,"byteOffset":46584},{"buffer":0,"byteLength":9440,"byteOffset":60744},{"buffer":0,"byteLength":11520,"byteOffset":70184},{"buffer":0,"byteLength":2496,"byteOffset":81704},{"buffer":0,"byteLength":2496,"byteOffset":84200},{"buffer":0,"byteLength":1664,"byteOffset":86696},{"buffer":0,"byteLength":1128,"byteOffset":88360}],"buffers":[{"byteLength":89488,"uri":"data:application/octet-stream;base64,"}]}